<svg xmlns="http://www.w3.org/2000/svg" viewBox="0 21.020000457763672 461.45001220703125 53.27000045776367" data-asc="1.091796875" width="461.45001220703125" height="53.27000045776367"><defs/><g fill="#ffffff"><g transform="translate(0, 0)"><path d="M31.05 47.02Q30.13 46.29 30.13 45.31L30.13 45.12Q30.13 44.14 31.01 43.26L30.66 42.94Q29.79 43.82 28.83 43.82L26.46 43.82Q24.98 43.82 24.02 44.78L23.51 44.26Q24.49 43.29 24.49 41.85L24.49 38.23Q24.49 36.77 23.51 35.79L24.02 35.30Q24.95 36.23 26.46 36.23L41.46 36.23Q42.97 36.23 43.90 35.30L44.36 35.79Q43.43 36.72 43.43 38.23L43.43 48.46Q43.43 49.22 43.64 49.67Q43.85 50.12 44.48 50.46L44.09 51.17Q43.65 50.95 43.10 50.95Q42.55 50.95 41.85 51.42Q36.18 55.20 25.73 55.66L25.73 58.01L26.12 60.72Q26.12 61.30 25.88 61.62Q25.63 61.94 25.33 61.94Q25.02 61.94 24.78 61.65Q24.54 61.35 24.54 61.07Q24.54 60.79 24.63 60.30Q24.93 58.79 24.93 57.23Q24.93 55.66 24.71 55.66Q19.92 55.66 14.65 55.00Q14.43 54.93 14.43 57.62Q14.43 60.30 14.88 63.16Q15.33 66.02 15.33 67.14Q15.33 69.41 13.94 69.41Q13.28 69.41 12.81 68.90Q12.33 68.38 12.33 67.25Q12.33 66.11 13.13 63.20Q13.94 60.28 13.94 58.64L13.94 54.83Q0 51.71 0 38.01Q0 27.59 8.59 23.44Q13.55 21.02 20.70 21.02Q32.25 21.02 38.43 25.54Q41.77 27.98 42.70 31.10Q43.14 32.57 44.26 33.35L43.90 33.84Q42.90 33.11 41.26 33.11L30.96 33.45Q29.42 33.54 28.88 34.62L28.08 34.23Q28.27 33.81 28.27 33.28Q28.27 32.74 27.44 31.63Q26.61 30.52 25.16 29.94Q23.71 29.37 21.33 29.37Q18.95 29.37 17.46 30.05Q15.97 30.74 15.09 31.93Q13.38 34.35 13.38 38.33Q13.38 42.31 15.93 44.89Q18.48 47.46 22.61 47.46Q26.73 47.46 28.88 46.92Q29.27 46.83 29.64 46.83Q30.00 46.83 30.76 47.41L31.05 47.02ZM71.39 58.54L71.56 56.20Q71.56 55.59 70.97 55.26Q70.39 54.93 69.70 54.93Q69.02 54.93 68.48 55.30Q67.94 55.66 67.94 56.35L67.94 61.96Q67.94 63.18 68.46 65.55Q68.97 67.92 68.97 68.93Q68.97 69.95 68.53 70.61Q68.09 71.26 67.32 71.26Q66.55 71.26 66.16 70.58Q65.77 69.90 65.77 68.80Q65.77 67.70 66.33 64.99Q66.89 62.28 66.89 60.79Q66.89 54.76 64.65 54.76Q61.62 54.76 61.62 54.52L61.62 54.57Q61.62 56.25 62.37 59.51Q63.11 62.77 63.11 64.18Q63.11 65.60 62.60 66.52Q62.08 67.43 61.02 67.43Q59.96 67.43 59.36 66.55Q58.76 65.67 58.76 64.27Q58.76 62.87 59.47 59.46Q60.18 56.05 60.18 54.30Q54.39 52.47 51.48 48.32Q48.56 44.17 48.56 38.06Q48.56 25.42 61.30 22.09Q65.43 21.02 69.84 21.02Q74.24 21.02 77.33 21.51Q80.42 22.00 83.31 23.23Q86.21 24.46 88.24 26.35Q90.28 28.25 91.50 31.24Q92.72 34.23 92.72 38.06Q92.72 45.87 88.33 50.16Q83.94 54.44 75.98 55.42Q75.88 55.59 75.88 55.96L76.00 57.30Q76.00 58.54 75.32 58.54Q74.63 58.54 74.63 57.35L74.71 55.98Q74.71 55.25 73.66 55.25Q73.56 55.47 73.56 56.08L73.68 58.45Q73.68 59.18 73.41 59.86Q73.14 60.55 72.51 60.55Q71.39 60.55 71.39 58.54M62.16 38.09Q62.16 47.02 70.65 47.02Q79.15 47.02 79.15 38.09Q79.15 33.98 76.95 31.81Q74.76 29.64 70.65 29.64Q66.55 29.64 64.36 31.81Q62.16 33.98 62.16 38.09ZM134.64 68.90L135.28 57.91Q134.99 56.42 133.22 55.26Q131.45 54.10 129.83 54.10Q127.20 54.10 127.20 58.62L127.32 62.60Q127.32 63.40 127.64 64.98Q127.95 66.55 127.95 67.48Q127.95 69.56 126.62 69.56Q125.29 69.56 125.29 67.60Q125.29 66.89 125.79 65.20Q126.29 63.50 126.29 63.04L126.29 60.55Q126.29 54.59 123.88 54.59L102.22 54.59Q100.39 54.59 99.78 55.22Q99.17 55.86 99.17 57.20L99.56 70.75Q99.56 71.90 99.16 72.55Q98.75 73.19 98.19 73.19Q97.63 73.19 97.25 72.56Q96.88 71.92 96.88 70.40Q96.88 68.87 97.40 64.06Q97.92 59.25 97.92 57.37L97.88 52.61L97.88 49.44Q97.88 48.66 97.66 48.21Q97.44 47.75 96.80 47.46L97.17 46.63Q97.73 46.85 98.18 46.84Q98.63 46.83 99.37 46.19L116.46 31.49Q117.63 30.52 118.95 30.03L118.82 29.69Q117.43 30.20 115.97 30.20L101.51 30.20Q100.05 30.20 99.07 31.18L98.58 30.66Q99.54 29.71 99.54 28.22L99.54 24.05Q99.54 22.56 98.58 21.61L99.07 21.09Q100.05 22.07 101.51 22.07L135.13 22.07Q136.57 22.07 137.55 21.09L138.06 21.61Q137.11 22.56 137.11 24.05L137.11 27.83Q137.11 28.61 137.33 29.06Q137.55 29.52 138.18 29.83L137.82 30.64Q137.26 30.42 136.83 30.42Q136.40 30.42 135.57 31.08L119.07 44.95Q118.02 45.83 116.58 46.36L116.67 46.70Q118.07 46.19 119.51 46.19L134.40 46.19Q135.91 46.19 136.84 45.26L137.30 45.75Q136.38 46.68 136.38 48.17L136.38 57.76Q136.38 59.30 137.11 63.26Q137.84 67.21 137.84 68.64Q137.84 70.07 137.39 70.75Q136.94 71.44 136.29 71.44Q135.64 71.44 135.14 70.75Q134.64 70.07 134.64 68.90ZM142.72 56.15L142.80 60.03Q142.80 61.21 142.43 61.80Q142.07 62.40 141.55 62.40Q140.53 62.40 140.53 60.42Q140.53 58.45 141.02 56.04Q141.50 53.64 141.87 52.73L153.59 23.90Q153.83 23.27 153.83 22.66Q153.83 22.05 153.42 21.46L154.10 21.02Q154.81 22.07 156.30 22.07L167.53 22.07Q168.99 22.07 169.70 21.02L170.41 21.46Q170.00 22.05 170.00 22.58Q170.00 23.12 170.29 23.88L182.35 52.76Q182.91 54.13 184.08 54.91L183.79 55.37Q182.59 54.59 181.13 54.59L176.34 54.59Q176.39 55.13 176.39 55.35Q176.39 56.15 175.73 56.15Q175.44 56.15 175.21 55.92Q174.98 55.69 174.98 55.26Q174.98 54.83 175.02 54.59L172.07 54.59Q171.00 54.59 170.68 55.76Q170.29 57.20 170.29 59.07Q170.29 60.94 170.53 62.48Q170.78 64.01 170.78 64.59Q170.78 65.16 170.50 65.52Q170.21 65.87 169.80 65.87Q169.38 65.87 169.09 65.53Q168.80 65.19 168.80 64.58Q168.80 63.96 169.10 62.21Q169.41 60.45 169.41 59.57L169.41 52.71Q169.17 52.05 169.17 51.49Q169.17 50.93 169.60 50.29L168.97 49.83Q168.24 50.88 166.77 50.88L156.74 50.88Q155.27 50.88 154.54 49.85L153.91 50.29Q154.37 50.95 154.37 51.51Q154.37 52.08 154.20 52.71L154.20 52.73Q153.98 53.56 153.98 54.00Q153.98 54.44 154.47 55.15L153.83 55.62Q153.10 54.59 151.64 54.59L142.80 54.59Q142.72 55.05 142.72 56.15M159.25 44.12L163.92 44.12Q165.38 44.12 166.55 44.90L166.87 44.43Q165.72 43.65 165.21 42.26L162.11 34.33Q161.57 32.93 161.55 31.49L161.23 31.49Q161.18 33.11 160.74 34.33L157.93 42.24Q157.42 43.65 156.30 44.43L156.62 44.92Q157.76 44.12 159.25 44.12M175.10 62.67Q175.10 60.99 175.73 58.45Q176.44 61.38 176.44 62.26Q176.44 63.55 175.77 63.55Q175.10 63.55 175.10 62.67ZM227.08 62.60L227.61 57.54Q227.61 54.47 225.11 52.84Q222.61 51.22 219.85 51.40Q217.09 51.59 215.99 53.27Q215.43 54.08 215.43 55.18L215.31 61.72Q215.31 63.06 215.72 65.71Q216.14 68.36 216.14 69.70Q216.14 72.07 214.79 72.07Q213.45 72.07 213.45 69.78Q213.45 68.26 213.89 65.43Q214.33 62.60 214.39 61.13Q214.45 59.67 214.45 54.88Q214.45 53.61 213.67 51.95Q212.89 50.29 211.21 47.39Q209.52 44.48 208.45 42.26L207.71 41.85Q207.13 42.92 205.64 42.92L203.59 42.99Q201.49 42.99 200.44 41.97L199.93 42.46Q200 43.36 200 46.31L199.98 52.29Q199.98 54.98 200.07 56.25L200.54 59.84Q200.54 60.84 199.85 60.84Q199.17 60.84 199.17 59.91L199.56 56.88Q199.56 55.79 198.91 55.14Q198.27 54.49 197.23 54.49Q196.19 54.49 195.40 55.41Q194.60 56.32 194.60 57.79Q194.60 59.25 195.14 61.76Q195.68 64.26 195.68 65.36Q195.68 67.65 194.04 67.65Q192.41 67.65 192.41 65.41Q192.41 64.36 192.88 61.74Q193.36 59.13 193.36 57.59Q193.36 56.05 192.65 55.07Q191.94 54.08 191.04 54.08Q190.14 54.08 189.50 54.70Q188.87 55.32 188.87 56.25L189.53 62.04Q189.53 63.53 188.43 63.53Q187.33 63.53 187.33 62.01Q187.33 61.13 187.79 58.95Q188.26 56.76 188.23 55.54Q188.21 54.32 188.21 23.95Q188.21 22.44 187.28 21.53L187.77 21.04Q188.72 21.97 190.19 21.97L212.06 21.97Q217.19 21.97 218.96 22.28Q220.73 22.58 222.06 22.92Q223.39 23.27 224.30 23.77Q225.22 24.27 226.16 25.01Q227.10 25.76 227.66 26.71Q228.96 28.88 228.96 31.32Q228.96 33.76 228.58 35.31Q228.20 36.87 227.32 38.23Q225.42 41.19 220.63 41.19L220.43 41.75Q221.97 42.36 222.49 43.43Q224.63 48.12 225.66 49.38Q226.68 50.63 227.56 51.39Q228.44 52.15 230.08 52.93Q231.71 53.71 232.06 53.94Q232.40 54.17 232.40 54.32Q232.40 56.76 233.06 60.60Q233.72 64.43 233.72 65.53Q233.72 66.63 233.63 67.11Q233.54 67.60 233.25 68.08Q232.96 68.55 232.40 68.55Q231.84 68.55 231.56 67.75Q231.27 66.94 231.27 65.77Q231.27 64.60 231.59 61.58Q231.91 58.57 231.91 57.03Q231.91 53.98 229.93 53.98Q228.96 53.98 228.48 54.32Q228.00 54.66 228.00 55.73Q228.00 56.79 228.44 59.11Q228.88 61.43 228.88 62.61Q228.88 63.79 227.98 63.79Q227.08 63.79 227.08 62.60M210.82 30.08L205.05 30.25Q201.51 30.25 200.44 29.20L199.93 29.66Q200.90 30.62 200.90 32.10L200.90 33.74Q200.90 35.21 199.93 36.18L200.44 36.67Q201.49 35.60 204.79 35.60L210.96 35.82Q213.43 35.82 214.78 35.17Q216.14 34.52 216.14 32.79Q216.14 31.69 215.38 31.07Q214.62 30.44 213.55 30.26Q212.48 30.08 210.82 30.08ZM236.60 28.39L236.72 25.27Q236.72 22.58 235.67 21.56L236.16 21.07Q237.13 22.02 238.57 22.02L270.63 22.02Q272.12 22.02 273.07 21.07L273.56 21.56Q272.63 22.49 272.63 24.00L272.51 27.12Q272.51 29.76 273.56 30.81L273.07 31.32Q271.97 30.20 269.51 30.20L264.11 30.54Q261.55 30.54 260.42 29.42L259.91 29.91Q260.86 30.83 260.86 32.35L260.86 52.61Q260.86 55.15 261.32 60.18Q261.77 65.21 261.77 66.80Q261.77 69.58 260.77 69.58Q259.77 69.58 259.77 67.60Q259.77 65.63 260.10 62.24Q260.42 58.86 260.42 57.15Q260.42 54.49 259.38 54.49Q258.86 54.49 258.57 55.10Q258.28 55.71 258.28 56.30L258.84 61.40Q258.84 63.16 257.84 63.16Q257.32 63.16 257.08 62.65Q256.84 62.13 256.84 61.45Q256.84 60.77 257.28 59.22Q257.71 57.67 257.71 56.69Q257.71 55.71 256.87 55.20Q256.03 54.69 254.75 54.69Q253.47 54.69 252.09 55.20Q250.71 55.71 249.66 56.80Q248.61 57.89 248.61 58.95Q248.61 60.01 248.94 61.52Q249.27 63.04 249.27 64.05Q249.27 65.06 248.36 65.06Q247.34 65.06 247.34 63.98Q247.34 62.89 247.73 61.23Q248.12 59.57 248.12 58.74L248.12 52.39Q248.17 39.01 248.17 32.35Q248.17 30.81 249.10 29.91L248.61 29.42Q247.53 30.52 245.04 30.52L239.79 30.20Q237.28 30.20 236.16 31.32L235.67 30.81Q236.60 29.88 236.60 28.39M257.64 66.85Q258.23 69.53 258.23 71.51Q258.23 72.36 257.62 72.36Q257.01 72.36 257.01 71.58Q257.01 69.38 257.64 66.85ZM292.65 50.54L292.26 47.51L292.26 47.24Q292.77 46.34 293.65 46.34L313.57 46.36Q315.06 46.36 315.99 45.41L316.48 45.90Q315.41 46.97 315.41 50Q315.41 50 315.41 51.42Q315.41 53.88 316.48 55.00L315.99 55.49Q315.04 54.54 313.57 54.54L284.69 54.54Q282.52 54.54 281.49 55.37Q280.32 56.35 280.32 60.89Q280.32 62.72 280.88 66.30Q281.45 69.87 281.45 71.68Q281.45 74.29 279.59 74.29Q277.59 74.29 277.59 71.61Q277.59 69.78 278.39 66.19Q279.20 62.60 279.20 60.74L279.08 52.56L279.08 24.10Q279.08 22.58 278.15 21.68L278.64 21.17Q279.64 22.12 281.08 22.12L312.43 22.12Q313.92 22.12 314.87 21.17L315.36 21.68Q314.28 22.75 314.28 25.73L314.28 27.10Q314.28 29.71 315.36 30.76L314.87 31.23Q313.65 29.98 309.13 29.98L297.00 30.54Q292.50 30.54 291.28 29.30L290.77 29.79Q291.72 30.71 291.72 32.24Q291.72 33.76 290.77 34.69L291.28 35.16Q292.46 33.94 296.22 33.94L306.45 34.50Q310.23 34.50 311.45 33.28L311.96 33.76Q310.89 34.84 310.89 37.89L310.89 39.26Q310.89 41.77 311.96 42.90L311.45 43.41Q310.28 42.19 306.49 42.19L296.26 42.72Q292.50 42.72 291.28 41.50L290.80 41.99Q291.53 42.72 291.65 43.74Q291.77 44.75 291.80 45.18Q291.82 45.61 291.80 46.50Q291.77 47.39 291.77 47.56L291.36 50.49Q291.36 51.37 292.00 51.37Q292.65 51.37 292.65 50.54ZM361.89 62.60L362.43 57.54Q362.43 54.47 359.92 52.84Q357.42 51.22 354.66 51.40Q351.90 51.59 350.81 53.27Q350.24 54.08 350.24 55.18L350.12 61.72Q350.12 63.06 350.54 65.71Q350.95 68.36 350.95 69.70Q350.95 72.07 349.61 72.07Q348.27 72.07 348.27 69.78Q348.27 68.26 348.71 65.43Q349.15 62.60 349.21 61.13Q349.27 59.67 349.27 54.88Q349.27 53.61 348.49 51.95Q347.71 50.29 346.02 47.39Q344.34 44.48 343.26 42.26L342.53 41.85Q341.94 42.92 340.45 42.92L338.40 42.99Q336.30 42.99 335.25 41.97L334.74 42.46Q334.81 43.36 334.81 46.31L334.79 52.29Q334.79 54.98 334.89 56.25L335.35 59.84Q335.35 60.84 334.67 60.84Q333.98 60.84 333.98 59.91L334.38 56.88Q334.38 55.79 333.73 55.14Q333.08 54.49 332.04 54.49Q331.01 54.49 330.21 55.41Q329.42 56.32 329.42 57.79Q329.42 59.25 329.96 61.76Q330.49 64.26 330.49 65.36Q330.49 67.65 328.86 67.65Q327.22 67.65 327.22 65.41Q327.22 64.36 327.70 61.74Q328.17 59.13 328.17 57.59Q328.17 56.05 327.47 55.07Q326.76 54.08 325.85 54.08Q324.95 54.08 324.32 54.70Q323.68 55.32 323.68 56.25L324.34 62.04Q324.34 63.53 323.24 63.53Q322.14 63.53 322.14 62.01Q322.14 61.13 322.61 58.95Q323.07 56.76 323.05 55.54Q323.02 54.32 323.02 23.95Q323.02 22.44 322.09 21.53L322.58 21.04Q323.54 21.97 325 21.97L346.88 21.97Q352.00 21.97 353.77 22.28Q355.54 22.58 356.87 22.92Q358.20 23.27 359.12 23.77Q360.03 24.27 360.97 25.01Q361.91 25.76 362.48 26.71Q363.77 28.88 363.77 31.32Q363.77 33.76 363.39 35.31Q363.01 36.87 362.13 38.23Q360.23 41.19 355.44 41.19L355.25 41.75Q356.79 42.36 357.30 43.43Q359.45 48.12 360.47 49.38Q361.50 50.63 362.38 51.39Q363.26 52.15 364.89 52.93Q366.53 53.71 366.87 53.94Q367.21 54.17 367.21 54.32Q367.21 56.76 367.87 60.60Q368.53 64.43 368.53 65.53Q368.53 66.63 368.44 67.11Q368.36 67.60 368.07 68.08Q367.77 68.55 367.21 68.55Q366.65 68.55 366.37 67.75Q366.09 66.94 366.09 65.77Q366.09 64.60 366.41 61.58Q366.72 58.57 366.72 57.03Q366.72 53.98 364.75 53.98Q363.77 53.98 363.29 54.32Q362.82 54.66 362.82 55.73Q362.82 56.79 363.26 59.11Q363.70 61.43 363.70 62.61Q363.70 63.79 362.79 63.79Q361.89 63.79 361.89 62.60M345.63 30.08L339.87 30.25Q336.33 30.25 335.25 29.20L334.74 29.66Q335.72 30.62 335.72 32.10L335.72 33.74Q335.72 35.21 334.74 36.18L335.25 36.67Q336.30 35.60 339.60 35.60L345.78 35.82Q348.24 35.82 349.60 35.17Q350.95 34.52 350.95 32.79Q350.95 31.69 350.20 31.07Q349.44 30.44 348.36 30.26Q347.29 30.08 345.63 30.08ZM385.96 60.62L386.47 57.15Q386.47 53.56 378.81 53.56Q377.49 53.56 376.98 54.17Q376.46 54.79 376.46 56.25Q376.46 57.71 376.90 60.31Q377.34 62.92 377.34 64.29Q377.34 65.67 376.25 65.67Q375.15 65.67 375.15 64.22Q375.15 62.77 375.49 59.84Q375.83 56.91 375.83 55.86Q375.83 53.37 374.93 53.37Q374.34 53.37 374.34 54.76L374.93 58.81Q374.93 60.25 373.89 60.25Q372.85 60.25 372.85 58.79L373.41 54.30L373.39 50.24L373.39 24.05Q373.39 22.53 372.44 21.61L372.92 21.09Q373.93 22.07 375.37 22.07L395.53 22.07Q410.13 22.07 413.65 31.57Q414.62 34.25 414.62 37.29Q414.62 40.33 414.25 42.52Q413.87 44.70 413.28 46.35Q412.70 48.00 411.63 49.27Q410.57 50.54 409.51 51.40Q408.45 52.27 406.81 52.88Q405.18 53.49 403.78 53.82Q402.39 54.15 400.29 54.32Q397.00 54.59 392.55 54.59L389.01 54.59Q386.96 54.59 386.96 57.52L387.35 60.64Q387.35 61.57 386.72 61.57Q385.96 61.57 385.96 60.62M399.96 43.81Q399.96 43.81 400.34 43.33Q400.71 42.85 401.12 41.30Q401.54 39.75 401.54 37.56Q401.54 35.38 400.81 33.91Q400.07 32.45 398.85 31.76Q397.63 31.08 396.14 30.75Q394.65 30.42 393.02 30.38Q391.38 30.35 389.97 30.32Q386.50 30.27 385.52 29.30L385.03 29.79Q385.96 30.69 385.96 32.23L385.96 37.84Q385.96 43.46 386.01 46.24L391.55 46.24Q395.73 46.24 397.47 45.51Q399.22 44.78 399.96 43.81M387.52 69.27Q387.52 69.27 387.52 69.83Q387.52 70.39 386.71 70.39Q385.89 70.39 385.89 69.47Q385.89 68.55 386.00 67.87Q386.11 67.19 386.38 66.13Q386.65 65.06 386.69 64.79Q386.77 65.11 386.96 65.86Q387.16 66.60 387.26 67.02Q387.52 68.16 387.52 69.27ZM421.56 57.57L421.51 52.61L421.51 23.95Q421.51 22.46 420.58 21.53L421.07 21.04Q422.00 21.97 423.49 21.97L444.56 21.97Q449.61 21.97 451.40 22.27Q453.20 22.56 454.54 22.91Q455.88 23.27 456.79 23.75Q457.69 24.24 458.64 25Q459.59 25.76 460.16 26.71Q461.45 28.91 461.45 31.63Q461.45 34.35 460.85 36.27Q460.25 38.18 458.94 39.70Q456.20 42.87 449.63 42.87L436.18 42.87Q434.67 42.87 433.74 41.94L433.23 42.41Q434.20 43.38 434.20 44.85L434.20 52.61Q434.20 54.49 434.16 57.23L433.06 57.32Q432.74 54.59 432.23 54.59L423.49 54.59Q423.19 54.59 423.01 55.77Q422.83 56.96 422.83 58.04Q422.83 59.13 423.29 61.74Q423.75 64.36 423.75 65.41Q423.75 67.65 422.12 67.65Q420.48 67.65 420.48 65.36Q420.48 64.26 421.02 61.47Q421.56 58.69 421.56 57.57M434.20 32.10L434.20 33.54Q434.20 34.99 433.23 35.96L433.74 36.47Q434.69 35.52 436.18 35.52L444.09 35.52Q446.56 35.52 447.05 35.24Q447.53 34.96 447.88 34.67Q448.46 34.13 448.46 33.13Q448.46 32.13 448.25 31.65Q448.05 31.18 447.66 30.91Q447.27 30.64 446.88 30.47Q446.48 30.30 445.92 30.22Q445.14 30.13 444.19 30.13L436.18 30.13Q434.67 30.13 433.74 29.20L433.23 29.66Q434.20 30.64 434.20 32.10M428.34 56.25L428.98 62.04Q428.98 63.53 427.89 63.53Q426.81 63.53 426.81 62.01Q426.81 61.13 427.26 58.95Q427.71 56.76 427.71 56.09Q427.71 55.42 427.70 54.37Q427.69 53.32 427.69 52.61L428.78 53.91Q428.61 53.91 428.48 54.70Q428.34 55.49 428.34 56.25Z"/></g></g></svg>